<svg width="128" height="82" viewBox="0 0 128 82" fill="none" xmlns="http://www.w3.org/2000/svg">
<path d="M109.974 46.9587C105.547 46.9802 101.713 47.8932 98.4977 49.2527C97.3105 47.2351 96.1233 45.472 95.9257 44.1554C95.7031 42.6262 95.431 41.6915 95.7031 39.8652C95.9749 38.0385 97.2116 35.4473 97.2116 35.2349C97.1866 35.0438 96.9393 34.1093 94.392 34.088C91.8447 34.0668 89.6432 34.5128 89.3959 35.0863C89.1485 35.6597 88.6539 36.9765 88.3324 38.3358C87.8872 40.3322 83.2373 47.4048 80.5908 51.1215C79.7252 49.6773 78.9832 48.403 78.8345 47.3833C78.6122 45.8543 78.3399 44.9196 78.6122 43.0933C78.8843 41.2665 80.1209 38.6756 80.1209 38.4632C80.0962 38.2721 79.8489 37.3376 77.3016 37.3163C74.7538 37.2951 72.5528 37.7411 72.3055 38.3146C72.0581 38.888 71.7861 40.2473 71.2419 41.5641C70.7223 42.8809 64.539 54.6897 62.9313 57.7693C62.1151 59.341 61.3981 60.594 60.8785 61.4436C60.3591 62.2931 60.8537 61.5073 60.8043 61.5923C60.3591 62.3144 60.1117 62.7179 60.1117 62.7179V62.7394C59.7655 63.2703 59.3945 63.7799 59.2211 63.7799C59.0974 63.7799 58.8501 62.3569 59.2706 60.4031C60.1857 56.3038 62.4117 49.9111 62.3872 49.6775C62.3872 49.5713 62.8074 48.4455 60.9524 47.8722C59.1469 47.2988 58.5041 48.2545 58.3554 48.2545C58.207 48.2545 58.0834 48.5943 58.0834 48.5943C58.0834 48.5943 60.0868 41.3946 54.2497 41.3946C50.5892 41.3946 45.5436 44.814 43.0456 47.9361C41.4626 48.6795 38.0989 50.251 34.5373 51.929C33.177 52.5662 31.7672 53.2458 30.4316 53.8618L30.1598 53.6065C23.0861 47.1287 10.0022 42.5411 10.5463 33.8332C10.7442 30.6686 12.0303 22.3218 35.6755 12.2121C55.0417 3.92898 70.5494 6.20153 73.2451 11.2564C77.0787 18.4775 64.9594 31.9004 44.8268 33.8332C37.1595 34.5765 33.1278 32.0279 32.114 31.0721C31.0504 30.0739 30.902 30.0314 30.5063 30.2226C29.8632 30.5199 30.259 31.412 30.5063 31.9429C31.0999 33.281 33.5732 35.6597 37.7779 36.8491C41.4629 37.8898 50.466 38.4632 61.3486 34.8526C73.5421 30.796 83.0644 19.5395 80.2696 10.1307C77.4252 0.552017 58.9248 -2.59132 41.4384 2.73961C31.0255 5.92543 19.7471 10.8953 11.6346 17.4156C1.98864 25.1465 0.45518 31.9004 1.09824 34.704C3.34922 44.7074 19.4008 51.2277 25.8315 56.0489C25.5099 56.1974 25.2131 56.3461 24.9411 56.4737C21.7258 57.8328 9.48281 63.3338 6.41589 69.1531C2.95324 75.7371 6.96002 80.4735 9.63121 81.1107C17.8921 83.0859 26.3509 79.539 30.9265 73.6984C35.4772 67.8577 34.9333 60.2755 32.831 56.8135L32.7565 56.6861L35.2793 55.4118C36.912 54.5835 38.5196 53.8189 39.9292 53.1602C39.138 55.008 38.5688 57.1956 38.2723 60.3814C37.926 64.1197 39.7068 68.9619 42.0565 70.8734C43.0953 71.7015 44.3319 71.7229 45.0987 71.7229C47.8193 71.7229 49.056 69.79 50.4163 67.4752C52.0982 64.6504 53.5822 61.3797 53.5822 61.3797C53.5822 61.3797 51.7272 70.2362 56.7975 70.2362C58.6525 70.2362 60.5075 68.1761 61.3484 67.1141V67.1354C61.3484 67.1354 61.3979 67.0717 61.4968 66.923C61.6006 66.7912 61.6996 66.6567 61.7936 66.5197V66.4772C62.5356 65.3728 64.1927 62.8454 66.666 58.6613C69.8564 53.2667 72.9235 46.5127 72.9235 46.5127C72.9235 46.5127 73.2203 48.1693 74.1355 50.8879C74.6794 52.5023 75.8665 54.2649 76.7817 55.9852C76.0397 56.8773 75.5945 57.3872 75.5945 57.3872L75.6192 57.4084C75.0259 58.0881 74.3578 58.8104 73.6655 59.5323C71.1428 62.1234 68.1253 65.0758 67.7296 65.9254C67.2596 66.9234 67.3586 67.6668 68.2737 68.2617C68.9415 68.6864 70.1287 68.7712 71.3901 68.6864C73.6656 68.5588 75.2485 68.0705 76.0399 67.773C77.2766 67.3907 78.6864 66.8172 80.0467 65.9677C82.5201 64.3962 84.0288 62.1661 83.8804 59.1927C83.8062 57.5573 83.1878 55.9432 82.4211 54.414C82.6437 54.1379 82.8666 53.8616 83.0889 53.5644C86.9968 48.6581 90.0142 43.2636 90.0142 43.2636C90.0142 43.2636 90.311 44.9202 91.2261 47.6388C91.6958 49.0193 92.6359 50.5275 93.4769 52.0142C89.8163 54.5841 87.5162 57.5575 86.7247 59.5115C85.2654 63.1221 86.4032 64.7575 88.5549 65.1398C89.5193 65.3097 90.9046 64.9274 91.9432 64.5451C93.2293 64.184 94.7875 63.5679 96.2223 62.6548C98.6956 61.0832 101.07 58.8956 100.946 55.9434C100.872 54.5841 100.452 53.2461 99.8828 51.9717C102.999 50.8673 107.03 50.2302 112.15 50.7611C123.157 51.8655 125.333 57.7699 124.913 60.2336C124.493 62.6975 122.192 64.0566 121.425 64.4814C120.659 64.8849 120.411 65.0338 120.486 65.3309C120.584 65.7771 120.931 65.7557 121.599 65.671C122.514 65.5433 127.386 63.6533 127.584 59.1084C127.881 53.2669 121.425 46.8952 109.974 46.9587ZM25.0895 71.532C21.4537 74.9514 16.3339 76.247 14.1574 75.1426C11.8077 73.9745 12.7226 68.9409 17.1996 65.309C19.9202 63.1002 23.4571 61.0613 25.782 59.8082C26.3014 59.5321 27.0929 59.1288 28.0327 58.6401C28.1811 58.5553 28.2801 58.5126 28.2801 58.5126C28.4532 58.4277 28.6511 58.3215 28.8489 58.2153C30.5061 63.3976 28.9231 67.9426 25.0895 71.532ZM51.6777 56.0065C50.4163 58.6613 47.7451 65.479 46.1375 65.0967C44.7521 64.7781 43.9115 59.6171 45.8651 54.5197C46.8545 51.9496 48.9568 48.8915 50.1935 47.7019C52.1971 45.7904 54.3734 45.1532 54.9178 45.9391C55.5608 46.9587 52.4692 54.3498 51.6777 56.0065ZM73.6161 65.0117C73.072 65.2455 72.5773 65.4152 72.3547 65.288C72.1815 65.2031 72.577 64.8845 72.577 64.8845C72.577 64.8845 75.3224 62.3571 76.4107 61.1889C77.029 60.5095 77.771 59.7237 78.5625 58.8314V59.0863C78.5627 62.1445 75.1495 64.1834 73.6161 65.0117ZM90.5334 61.6985C90.1376 61.4436 90.1873 60.6578 91.5227 58.1941C92.0423 57.2171 93.2293 55.5817 95.2821 54.0312C95.5295 54.6684 95.6781 55.2841 95.6531 55.8578C95.6287 59.6808 92.4628 61.1038 90.5334 61.6985Z" fill="#CF649A"/>
</svg>
